<svg xmlns="http://www.w3.org/2000/svg" viewBox="0 0 400 300" width="400" height="300">
  <defs>
    <linearGradient id="bg" x1="0" y1="0" x2="0" y2="1">
      <stop offset="0" stop-color="#EDEFF2"/>
      <stop offset="1" stop-color="#D8DDE4"/>
    </linearGradient>
  </defs>
  <rect width="400" height="300" fill="url(#bg)"/>
  <!-- 英短圆脸 -->
  <circle cx="200" cy="160" r="120" fill="#E7E9ED"/>
  <path d="M95 130 L55 30 L175 100 Z" fill="#E7E9ED"/>
  <path d="M305 130 L345 30 L225 100 Z" fill="#E7E9ED"/>
  <path d="M100 122 L72 45 L162 100 Z" fill="#CFD4DB"/>
  <path d="M300 122 L328 45 L238 100 Z" fill="#CFD4DB"/>
  <!-- 银渐层毛色 -->
  <ellipse cx="200" cy="185" rx="110" ry="85" fill="#E0E4EA"/>
  <!-- 大眼睛（英短特色圆眼） -->
  <circle cx="160" cy="150" r="30" fill="#FBF6EE"/>
  <circle cx="240" cy="150" r="30" fill="#FBF6EE"/>
  <circle cx="160" cy="150" r="23" fill="#E8A33D"/>
  <circle cx="240" cy="150" r="23" fill="#E8A33D"/>
  <circle cx="164" cy="145" r="9" fill="#FFF"/>
  <circle cx="244" cy="145" r="9" fill="#FFF"/>
  <circle cx="160" cy="152" r="8" fill="#3A2A1A"/>
  <circle cx="240" cy="152" r="8" fill="#3A2A1A"/>
  <!-- 鼻子 -->
  <path d="M190 195 L210 195 L200 206 Z" fill="#E8836B"/>
  <path d="M200 206 Q186 222 176 216" stroke="#6E5A4A" stroke-width="2.5" fill="none" stroke-linecap="round"/>
  <path d="M200 206 Q214 222 224 216" stroke="#6E5A4A" stroke-width="2.5" fill="none" stroke-linecap="round"/>
  <!-- 胡须 -->
  <path d="M152 200 L80 192" stroke="#9AA0A8" stroke-width="2" stroke-linecap="round"/>
  <path d="M152 210 L76 212" stroke="#9AA0A8" stroke-width="2" stroke-linecap="round"/>
  <path d="M248 200 L320 192" stroke="#9AA0A8" stroke-width="2" stroke-linecap="round"/>
  <path d="M248 210 L324 212" stroke="#9AA0A8" stroke-width="2" stroke-linecap="round"/>
  <!-- 圆腮 -->
  <ellipse cx="150" cy="205" rx="40" ry="28" fill="#DCE1E8" opacity="0.8"/>
  <ellipse cx="250" cy="205" rx="40" ry="28" fill="#DCE1E8" opacity="0.8"/>
</svg>
