<svg xmlns="http://www.w3.org/2000/svg" viewBox="0 0 1000 700" width="1000" height="700" preserveAspectRatio="xMidYMid slice">
  <defs>
    <linearGradient id="bg" x1="0" y1="0" x2="0" y2="1">
      <stop offset="0" stop-color="#FAFAFC"/>
      <stop offset="1" stop-color="#E9E9EF"/>
    </linearGradient>
  </defs>
  <rect width="1000" height="700" fill="url(#bg)"/>
  <!-- 散落的照片 -->
  <g transform="rotate(-8 180 150)">
    <rect x="120" y="90" width="130" height="100" rx="10" fill="#FFFFFF" stroke="#D8D8DF" stroke-width="2"/>
    <rect x="132" y="102" width="106" height="76" rx="6" fill="#F0B8B8"/>
    <circle cx="185" cy="140" r="26" fill="#F5A623"/>
    <path d="M168 120 L160 88 L178 112 Z" fill="#F5A623"/>
    <path d="M202 120 L210 88 L192 112 Z" fill="#F5A623"/>
    <circle cx="180" cy="140" r="5" fill="#3A2416"/>
    <circle cx="190" cy="140" r="5" fill="#3A2416"/>
  </g>
  <g transform="rotate(6 830 180)">
    <rect x="760" y="120" width="130" height="100" rx="10" fill="#FFFFFF" stroke="#D8D8DF" stroke-width="2"/>
    <rect x="772" y="132" width="106" height="76" rx="6" fill="#DCE1E8"/>
    <circle cx="825" cy="170" r="26" fill="#E7E9ED"/>
    <path d="M808 150 L800 118 L818 142 Z" fill="#E7E9ED"/>
    <path d="M842 150 L850 118 L832 142 Z" fill="#E7E9ED"/>
    <circle cx="820" cy="170" r="5" fill="#3A2416"/>
    <circle cx="830" cy="170" r="5" fill="#3A2416"/>
  </g>
  <!-- 中央大相框 -->
  <g>
    <rect x="310" y="120" width="380" height="460" rx="26" fill="#FFFFFF" stroke="#D8D8DF" stroke-width="3"/>
    <rect x="336" y="146" width="328" height="408" rx="16" fill="#FFF"/>
    <circle cx="500" cy="350" r="120" fill="#F7B733"/>
    <path d="M410 280 L380 170 L465 250 Z" fill="#F7B733"/>
    <path d="M590 280 L620 170 L535 250 Z" fill="#F7B733"/>
    <path d="M418 268 L395 195 L455 248 Z" fill="#F5A0A0"/>
    <path d="M582 268 L605 195 L545 248 Z" fill="#F5A0A0"/>
    <path d="M430 255 Q500 225 570 255 Q585 305 540 340 Q500 360 460 340 Q415 305 430 255 Z" fill="#F9C14A"/>
    <ellipse cx="460" cy="330" rx="26" ry="22" fill="#FFF"/>
    <ellipse cx="540" cy="330" rx="26" ry="22" fill="#FFF"/>
    <circle cx="460" cy="330" r="16" fill="#E8A33D"/>
    <circle cx="540" cy="330" r="16" fill="#E8A33D"/>
    <circle cx="464" cy="326" r="6" fill="#FFF"/>
    <circle cx="544" cy="326" r="6" fill="#FFF"/>
    <ellipse cx="460" cy="333" rx="5" ry="8" fill="#3A2A1A"/>
    <ellipse cx="540" cy="333" rx="5" ry="8" fill="#3A2A1A"/>
    <path d="M488 380 L512 380 L500 396 Z" fill="#E8836B"/>
    <path d="M500 396 Q484 414 472 408" stroke="#6E5A4A" stroke-width="3.5" fill="none" stroke-linecap="round"/>
    <path d="M500 396 Q516 414 528 408" stroke="#6E5A4A" stroke-width="3.5" fill="none" stroke-linecap="round"/>
    <path d="M452 384 L400 376" stroke="#6E5A4A" stroke-width="2.5" stroke-linecap="round"/>
    <path d="M452 394 L398 396" stroke="#6E5A4A" stroke-width="2.5" stroke-linecap="round"/>
    <path d="M548 384 L600 376" stroke="#6E5A4A" stroke-width="2.5" stroke-linecap="round"/>
    <path d="M548 394 L602 396" stroke="#6E5A4A" stroke-width="2.5" stroke-linecap="round"/>
  </g>
  <!-- 底部胶卷装饰 -->
  <g transform="translate(120 590)">
    <rect x="0" y="20" width="760" height="70" rx="14" fill="#1D1D1F"/>
    <rect x="14" y="32" width="86" height="46" rx="6" fill="#F0B8B8"/>
    <rect x="112" y="32" width="86" height="46" rx="6" fill="#DCE1E8"/>
    <rect x="210" y="32" width="86" height="46" rx="6" fill="#F7B733"/>
    <rect x="308" y="32" width="86" height="46" rx="6" fill="#E8836B"/>
    <rect x="406" y="32" width="86" height="46" rx="6" fill="#7BB8FF"/>
    <rect x="504" y="32" width="86" height="46" rx="6" fill="#F5A623"/>
    <rect x="602" y="32" width="86" height="46" rx="6" fill="#E7E9ED"/>
    <circle cx="40" cy="20" r="9" fill="#1D1D1F"/>
    <circle cx="720" cy="20" r="9" fill="#1D1D1F"/>
    <circle cx="40" cy="90" r="9" fill="#1D1D1F"/>
    <circle cx="720" cy="90" r="9" fill="#1D1D1F"/>
  </g>
</svg>
